<?xml version="1.0" encoding="UTF-8"?>
<svg xmlns="http://www.w3.org/2000/svg" viewBox="0 0 21000 29700">
<path d="M11995.08 20093.56c3.57,-71.92 8.94,-137.37 18.67,-186.08 21.41,-107.16 44.58,-226.15 27.14,-345.19m-40.96 280.61l0.12 19.59 -2.02 -0.03m-2283.56 -967.84c664.71,0 1203.56,538.86 1203.56,1203.57 0,454.64 -252.11,850.35 -624.14,1055.09l862.14 0c-21.88,-91.99 -29.73,-599.67 31.13,-801.46 85.23,-426.53 -151.57,-1340.26 -267.9,-1761.11 -147.01,-531.84 -131.69,-831.3 -147.79,-1383.37 -6.47,-221.74 -95.29,-432.13 -189.74,-582.78 -183.83,-293.2 -343.25,-76.77 -532.91,-219.19 -270.95,-203.47 -63.32,-1012.98 -315.67,-1218.99 -221.02,202.94 -3.04,1182.68 -420.5,1252.19 -316.47,52.69 -454.88,-70.92 -494.59,324.51 -71.41,711.15 -167.89,1435.33 -336.91,2114.78 -55.69,223.84 -112.27,433.55 -148.74,668.53 -39.82,256.55 -32.96,536.05 -72.25,768.37 12.45,195.15 20.93,637.6 23.09,838.52l851.79 0c-372.02,-204.74 -624.14,-600.45 -624.14,-1055.09 0,-664.71 538.85,-1203.57 1203.57,-1203.57zm2853.87 2258.66l17.65 0 0 564.86 -5727.94 0 0 -557.42c-44.38,-47.4 -47.81,-82.09 -105.2,-138.3 -50.43,-49.38 -166.13,-90.72 -39.97,-236.39 115.28,-133.11 312.49,-128.01 383.34,-217.59 76.59,-90.21 -61.36,-33.84 14.71,-155.81 6.25,-10.02 84.32,-136.27 112.14,-152.99 148.05,-89.03 74.38,-28.16 217.77,-124.99 -22.82,-157.68 -20.87,-311.32 -50.75,-474.83 -80.08,-438.28 -156.93,-873.3 -153.9,-1323.13 6.13,-910.6 215.45,-1138.94 275.88,-1687.64 56.3,-511.33 -322.95,-328.71 -314.08,-681.01 4.96,-197.19 107.75,-611.54 137.57,-848.11 39.48,-313.09 54.8,-605.81 67.91,-923.37 11.65,-282.33 91.59,-569.26 130.03,-846.17 33.97,-244.77 -30.37,-242.72 -123.5,-374.21 -80.5,-113.64 -24.11,-253.56 -1.54,-397.41 44.27,-282.04 74.71,-592.59 94.25,-881.24 64.02,-945.72 61.16,-1890.04 -5.74,-2837.07 -20.26,-286.76 44.7,-648.29 -257.57,-718.2 -583.03,-134.84 -1097.28,25.1 -1353.12,-84.36 -209.11,-89.46 -89.98,-146.45 -120.25,-319.86 -402.18,-37.48 -1052.34,4.25 -1400.28,-108.24 -400.79,-129.58 -533.48,-539.55 -384.92,-1023.44 425.83,-1387.05 1408.27,-2128.75 1651.22,-2843.52 230.09,-650.94 243.84,-451.42 647.63,-430.81 177.38,-3.84 162.94,17.48 286.62,83.18 90.32,47.98 195.32,55.33 251.5,124.04 59.29,72.51 3.62,49.67 97.85,102.42 54.95,30.77 61.37,15.96 105.15,71.3 183.99,232.54 -142.86,334.29 -210.83,430.99 -195.54,278.22 86.04,334.69 260.86,404.58 451.3,180.44 338.22,592.6 63.55,400.73 -249.7,-174.42 -206.51,-158.31 -550.82,-246.78 -401.99,-103.29 -590.57,20.83 -758.37,250.71 -227.71,311.94 -381.77,732.58 -467.18,1130.52 -22.12,103 -63.85,231.27 -62.12,341.86 3.45,220.69 266.15,114.98 499.05,90.47 223.42,-23.51 249.42,17.76 373.51,-138.31 154.22,-17.78 173.3,8.75 322.86,-50.76 86.08,-34.25 161.7,-66.59 255.8,-98.93 174.73,-60.04 364.08,-115.64 554.46,-152.79 560.66,-109.43 1663.4,74.74 1548.43,-623.45l-229.67 -482.37c-123.6,-81.53 -99.64,-35.52 -171.49,-182.9 -79.1,-162.25 -170.12,-343.53 -182.21,-532.16 -31.66,-244.59 23.36,-193.73 160.22,-198.61 -126.12,-414.85 -97.47,-126.56 -212.79,-763.61 -193.4,-1068.34 233.56,-1039.11 429.24,-1167.17 92.11,-80.72 -8.73,-157.56 134.14,-131.38 347.94,-118.33 537.5,-300.72 693.94,-272.56 115.4,20.77 267.8,109.58 402.23,136.45 165.7,33.11 232.49,37.85 365.59,120.15 556.59,344.14 813.62,1053.66 658.01,1714.44 -33.28,141.3 -132.51,223.33 -149.53,327.2 164.45,70.15 250.98,-99.3 94.15,524.73 -34.72,90.7 -66.21,183.27 -102.26,274.35 -48.51,122.54 -63.71,124.57 -185.36,163.99 -28.29,219.84 -47.66,224.8 -149.33,365.35 -66.31,91.68 -67.8,279.76 -26.46,392.69 1.24,3.39 6.55,17.58 7.53,14.5 0.96,-3.06 5.13,9.49 8.04,14.04 80.49,11.95 110.13,-42.89 211.62,26.22 73.37,49.96 45.99,89.64 167.13,104.62 153.92,19.02 330.21,8.98 497.35,30.08 348.08,43.96 67.58,37.91 455.33,26.51 461.31,-13.56 921.75,137.29 1330.24,289.86 379.11,141.6 507.1,135.41 887.93,174.13 38.09,220.81 -129.93,337.32 128.7,316.85 56.75,-4.49 101.08,-16.3 151.78,-29.24 29.59,-297.65 -352.56,-1359.18 -516.83,-1620.94 -167.26,-266.54 -301.34,-375.13 -737.71,-315.3 -222.63,30.52 -397.32,97.2 -557.74,235.23 -241.07,207.45 -470.1,-241.2 168.23,-409.81 332.48,-87.83 229.6,-338.94 27.05,-493.53 -319.16,-243.61 8.68,-377.43 134.75,-493.27 60.53,-55.62 58.91,-42.82 146.2,-73.72 115.62,-40.94 56.75,-38.84 133.86,-89.39 116.75,-76.53 150.05,11.33 350.58,-48.29 180.92,-53.8 247.21,7.18 337.38,89.59 261.66,239.13 193.64,632.71 408.38,920.5 75.87,101.7 131.9,151.02 203.5,239.32 197.92,244.11 379.14,479.42 546.69,759.42 217.21,362.98 413.65,757.2 568.65,1202.74 156.19,448.93 174.5,1052.68 -409.21,1150.18 -254.02,42.43 -525.39,46.96 -785.93,93.64 -545.48,97.72 -571.64,-70.05 -751.2,91.92 -226.24,204.11 -408.61,117.06 -747.3,135.4 -211.73,11.47 -542.72,69.79 -703.78,162.38 -208.93,120.1 -239.85,335.95 -250.64,639.14 -41.17,1156.19 -38.52,2185.18 118.89,3336.92 25.52,186.77 149.83,599.69 101.05,732.07 -116.3,315.62 -104.94,391.83 -28.6,747.17l449.45 2183.58c155.81,777.79 -757.94,-33.86 -426.8,1157.66 148.66,534.91 257.93,959.12 207.4,1562.4 -25.77,307.61 -112.66,644.15 -169.5,959.31 -17.31,96 -31.81,190 -40.96,280.61 -0.66,6.54 -1.3,13.05 -1.9,19.56 -7.35,79.11 -10.43,155.53 -7.46,228.27l4.51 2.83c488,303.99 254.35,440.55 318.4,459.73l232.94 69.73c328.18,137.83 202.19,299.31 74.37,379.03 -27.67,17.25 -44.12,109.36 -52.45,151.23z"/>
<path d="M9461.43 20463.66l-213.36 276.52c-24.05,29.85 -20.64,31.66 -0.92,70.51 43.94,86.51 106.51,159.58 169.46,225.55 46.88,49.13 53.29,45.8 140.38,57.46 112.53,15.06 256.68,16.1 362.8,-13.51 81.11,-22.63 189.13,-174.88 234.28,-256.6 20.4,-36.94 14.45,-34.3 -5.91,-66.2l-155.6 -239.64c-68.24,-97.03 -30.33,-40.87 -333.59,-45.1 -61.37,-0.86 -144.15,-12.36 -197.54,-8.99z"/>
<path d="M9184.82 20727.67l169.28 -219.87c80.48,-94.97 59.51,-68.11 17.42,-184.06 -40.69,-112.07 -84.29,-227.7 -94.27,-352.01 -64.21,-15.32 -131.77,-40.4 -196.51,-58.75 -31.23,-8.85 -66.87,-20.22 -98.05,-29.43 -81,-23.92 -91.82,-65.38 -216.6,125.82 -22.46,34.41 -89.48,136.98 -82.12,177.34 23.89,131.15 80.25,279.42 132.6,391.83 21.09,45.27 19.82,41.73 65.38,62.12 73.7,33 223.43,96.58 302.87,87.01z"/>
<path d="M10218.68 20760.71c98.06,-3.24 218.84,-55.82 293.45,-94.96 62.24,-32.64 67.64,-28.47 98.84,-98.4 40.85,-91.54 105.24,-290.3 107.61,-385.54 1.17,-47.17 -147,-266.45 -192.99,-307.66l-316.8 86.84c-73.29,22.54 -39.44,2.06 -77.88,125.8 -24.47,78.8 -77.68,224.11 -111.75,296.43 -26.26,55.74 -19.26,37.11 41.62,129.97 53.2,81.18 107.19,163.08 157.9,247.52z"/>
<path d="M9295.75 19916.3c58.63,-42.4 111.39,-96.12 182.57,-144.24 69.66,-47.1 100.32,-69.02 173.34,-106.89 21.31,-11.05 14.86,-4.89 26.33,-21.24l9.92 -373.02c-69.29,-41.3 -303.83,-136.03 -393.42,-90.48 -125.49,63.8 -207.53,108.92 -307.29,202.31 -63.56,59.5 -58.76,56.56 -76.21,172.2 -8.11,53.75 -19.03,186.44 0.26,234.53 9.6,23.91 34.62,21.95 88.65,38.47l295.85 88.36z"/>
<path d="M9739.45 19646.85c27.01,20.34 62.56,30.59 93.93,48.45 84.17,47.92 182.35,116.36 249.7,177.47 27.65,25.09 43.63,53.48 83.84,40.71 37.09,-11.77 72.69,-23.71 112.66,-34.94 74.36,-20.89 149.58,-42.2 224.67,-62.04 14.28,-73.42 13.1,-151.6 8.13,-227.07 -2.23,-33.99 -6.49,-70.82 -11.36,-103.3 -8.55,-56.97 -11.1,-46.5 -43.66,-76.93 -115.7,-108.15 -119.31,-114.43 -276.32,-202.09 -75.78,-42.3 -84.95,-40.29 -181.99,-22.22 -40.02,7.45 -245.57,53.05 -253.21,99.72 -4.05,24.76 -1.84,90.87 -2.45,120.07 -1.65,77.68 -6.88,165.76 -3.94,242.17z"/>
<path d="M9347.11 21176.35c62.26,46.07 256.21,83.61 356.46,83.46 129.57,-0.19 268.58,-27.06 373.92,-73.14 -36.38,-19.34 -122.04,-54.3 -161.23,-46.39 -138.56,27.99 -253.22,29.51 -395.15,7.37 -36.71,-5.73 -58.21,-17.79 -92.06,-3.98 -21.67,8.84 -63.38,23.36 -81.94,32.68z"/>
<path d="M10629.47 20698.38l-3.53 82.96c46.88,-34.47 141.41,-207.19 168.46,-285.81 46.15,-134.07 60.82,-231.66 60.19,-387.78 -14.98,12.65 -27.6,32.24 -49.06,48.52 -31.29,23.75 -32.02,13.97 -37.17,65.2 -9.52,94.62 -47.84,236.39 -83.51,323.5 -23.14,56.48 -55.23,87.99 -55.38,153.41z"/>
<path d="M10656.79 19441.17c-116.35,-173.41 -356.24,-372.64 -576.64,-413.11 7.29,15.97 12.7,19.94 22.28,35.16 11.39,18.08 11.94,29.07 19.84,43.31 13.44,24.25 28.25,19.86 81.5,46.56 133.2,66.78 219.63,136.6 318.53,235.75 16.41,16.44 10.33,15.99 39.72,23.75 31.07,8.21 69.53,24.01 94.77,28.58z"/>
<path d="M8785.38 20755.36c7.01,-188.7 -39.34,-130.12 -96.9,-341.4 -8.87,-32.55 -60.53,-232.4 -73.85,-251.75 -12.1,-17.56 -33.76,-57.35 -46.21,-69.02 -14.39,125.75 13.13,283.85 55.15,385.5 37.68,91.14 106.41,215.78 161.81,276.67z"/>
<path d="M8801.99 19417.7c166.72,-36.47 82.64,-60.1 285.32,-189.59 47.09,-30.08 96.52,-59.91 149.84,-85.84 28.12,-13.67 55.48,-17.84 70.71,-44.08 16.63,-28.64 28.65,-48.23 43.99,-73.38 -158.13,43.65 -339.15,147.07 -444.44,259.24 -26.56,28.28 -85.02,92.59 -105.42,133.65z"/>
<rect x="6168.1" y="6492.35" width="7213.33" height="1322.7"/>
</svg>
